<svg width="18" height="18" viewBox="0 0 18 18" fill="none" xmlns="http://www.w3.org/2000/svg">
<path d="M10 4.99999C12.103 4.99999 13 5.89699 13 7.99999H15C15 4.77499 13.225 2.99999 10 2.99999V4.99999ZM13.422 10.443C13.2299 10.2683 12.9774 10.1752 12.7178 10.1832C12.4583 10.1912 12.212 10.2998 12.031 10.486L9.63801 12.947C9.06201 12.837 7.90401 12.476 6.71201 11.287C5.52001 10.094 5.15901 8.93299 5.05201 8.361L7.51101 5.96699C7.69742 5.78612 7.80614 5.53982 7.81417 5.2802C7.82219 5.02059 7.72889 4.76804 7.55401 4.57599L3.85901 0.512995C3.68405 0.320352 3.44089 0.203499 3.18116 0.187255C2.92143 0.17101 2.66561 0.256653 2.46801 0.425995L0.298008 2.28699C0.125119 2.46051 0.0219269 2.69145 0.0080073 2.93599C-0.0069927 3.18599 -0.292993 9.108 4.29901 13.702C8.30501 17.707 13.323 18 14.705 18C14.907 18 15.031 17.994 15.064 17.992C15.3085 17.9783 15.5393 17.8747 15.712 17.701L17.572 15.53C17.7415 15.3325 17.8273 15.0768 17.8112 14.817C17.7952 14.5573 17.6785 14.3141 17.486 14.139L13.422 10.443Z" fill="#264653"/>
</svg>
